HIERARCHY
ROOT joint_Root
{
	OFFSET 0.0 0.0 0.0
	CHANNELS 6 Xposition Yposition Zposition Zrotation Xrotation Yrotation 
	JOINT Hips
	{
		OFFSET -0.726466 93.3139 -2.00062
		CHANNELS 6 Xposition Yposition Zposition Zrotation Xrotation Yrotation 
		JOINT Spine
		{
			OFFSET 15.7357 0.0 0.0
			CHANNELS 6 Xposition Yposition Zposition Zrotation Xrotation Yrotation 
			JOINT Chest
			{
				OFFSET 8.98455 -0.406207 0.0
				CHANNELS 6 Xposition Yposition Zposition Zrotation Xrotation Yrotation 
				JOINT Neck
				{
					OFFSET 16.3773 0.0 0.0
					CHANNELS 6 Xposition Yposition Zposition Zrotation Xrotation Yrotation 
					JOINT Head
					{
						OFFSET 6.45672 0.0 0.0
						CHANNELS 6 Xposition Yposition Zposition Zrotation Xrotation Yrotation 
						End Site
						{
							OFFSET 0.0 0.0 0.0
						}
					}
				}
				JOINT Shoulder_L
				{
					OFFSET 12.9942 -0.242716 4.98039
					CHANNELS 6 Xposition Yposition Zposition Zrotation Xrotation Yrotation 
					JOINT UpperArm_L
					{
						OFFSET 5.34809 0.0 0.0
						CHANNELS 6 Xposition Yposition Zposition Zrotation Xrotation Yrotation 
						JOINT LowerArm_L
						{
							OFFSET 24.3286 1.87007e-05 0.0
							CHANNELS 6 Xposition Yposition Zposition Zrotation Xrotation Yrotation 
							JOINT Hand_L
							{
								OFFSET 22.2916 0.0 0.0
								CHANNELS 6 Xposition Yposition Zposition Zrotation Xrotation Yrotation 
								End Site
								{
									OFFSET 0.0 0.0 0.0
								}
							}
						}
					}
				}
				JOINT Shoulder_R
				{
					OFFSET 12.9945 -0.242716 -4.98039
					CHANNELS 6 Xposition Yposition Zposition Zrotation Xrotation Yrotation 
					JOINT UpperArm_R
					{
						OFFSET -5.34813 0.0 0.0
						CHANNELS 6 Xposition Yposition Zposition Zrotation Xrotation Yrotation 
						JOINT LowerArm_R
						{
							OFFSET -24.3289 0.000322201 0.0
							CHANNELS 6 Xposition Yposition Zposition Zrotation Xrotation Yrotation 
							JOINT Hand_R
							{
								OFFSET -22.2915 -0.000108084 0.0
								CHANNELS 6 Xposition Yposition Zposition Zrotation Xrotation Yrotation 
								End Site
								{
									OFFSET 0.0 0.0 0.0
								}
							}
						}
					}
				}
			}
		}
		JOINT UpperLeg_L
		{
			OFFSET -2.19248 -6.46944 0.0
			CHANNELS 6 Xposition Yposition Zposition Zrotation Xrotation Yrotation 
			JOINT LowerLeg_L
			{
				OFFSET 39.0811 0.0 -1.23785e-05
				CHANNELS 6 Xposition Yposition Zposition Zrotation Xrotation Yrotation 
				JOINT Foot_L
				{
					OFFSET 40.9854 0.0 -1.26872e-05
					CHANNELS 6 Xposition Yposition Zposition Zrotation Xrotation Yrotation 
					JOINT Toes_L
					{
						OFFSET 11.7543 0.0 0.0
						CHANNELS 6 Xposition Yposition Zposition Zrotation Xrotation Yrotation 
						End Site
						{
							OFFSET 0.0 0.0 0.0
						}
					}
				}
			}
		}
		JOINT UpperLeg_R
		{
			OFFSET -2.19251 6.46944 0.0
			CHANNELS 6 Xposition Yposition Zposition Zrotation Xrotation Yrotation 
			JOINT LowerLeg_R
			{
				OFFSET -39.0811 -0.00228153 -0.0401928
				CHANNELS 6 Xposition Yposition Zposition Zrotation Xrotation Yrotation 
				JOINT Foot_R
				{
					OFFSET -40.9854 0.0 0.0
					CHANNELS 6 Xposition Yposition Zposition Zrotation Xrotation Yrotation 
					JOINT Toes_R
					{
						OFFSET -11.7543 0.0 0.0
						CHANNELS 6 Xposition Yposition Zposition Zrotation Xrotation Yrotation 
						End Site
						{
							OFFSET 0.0 0.0 0.0
						}
					}
				}
			}
		}
	}
}
MOTION
Frames:	6
Frame Time:	0.0333333
0.000000 0.000000 0.000000 0.000000 0.000000 -0.000000 -0.774580 92.329200 -1.469370 88.032900 -1.760750 3.665010 15.735700 0.000005 -0.000001 84.456600 85.193500 -83.768800 8.984550 -0.406207 -0.000000 1.808470 -0.963817 1.389550 16.377300 -0.000001 -0.000001 2.449490 -2.391210 -0.002916 6.456720 -0.000001 -0.000000 4.336930 -2.868420 -1.114680 12.994200 -0.242716 4.980390 -90.275500 0.906422 -73.094500 5.348090 -0.000007 -0.000001 -65.511200 40.544600 -16.836800 24.328600 0.000019 0.000005 1.590450 3.696130 -23.297300 22.291600 -0.000001 0.000005 2.743750 5.498030 -6.459030 12.994500 -0.242716 -4.980390 88.135500 6.246520 -73.343800 -5.348130 -0.000001 -0.000004 -64.702200 41.832200 -16.603700 -24.328900 0.000322 -0.000009 1.970150 6.728260 -16.370800 -22.291500 -0.000108 -0.000004 8.098080 5.430660 -3.961850 -2.192480 -6.469440 -0.000000 -175.637000 -6.352800 -3.015890 39.081100 -0.000007 -0.000012 -0.098257 0.233880 22.788200 40.985400 -0.000006 -0.000013 -0.221174 3.093440 -66.281500 11.754300 -0.000000 0.000003 -0.000027 -0.000328 -16.590400 -2.192510 6.469440 -0.000001 -179.984000 13.206800 179.952000 -39.081100 -0.002282 -0.040193 -0.015905 0.055401 19.140100 -40.985400 0.000008 0.000006 4.126610 7.115390 -66.018400 -11.754300 -0.000006 -0.000006 -0.006025 -0.071060 -19.465200
0.000000 0.000000 0.000000 0.000000 0.000000 -0.000000 -0.781066 92.321900 -1.515770 88.043500 -1.712040 3.710470 15.735700 0.000005 -0.000001 85.084800 85.163300 -84.350900 8.984550 -0.406207 -0.000000 1.878020 -0.866012 1.480790 16.377300 -0.000001 -0.000001 2.351900 -2.480440 -0.006525 6.456720 -0.000001 -0.000000 4.372340 -2.911810 -1.344830 12.994200 -0.242716 4.980390 -90.442800 1.471220 -73.247500 5.348090 -0.000007 -0.000001 -63.458400 39.007700 -17.765500 24.328600 0.000019 0.000005 2.369540 4.974490 -25.506900 22.291600 -0.000001 0.000005 2.182620 5.524400 -7.550790 12.994500 -0.242716 -4.980390 88.198000 6.048820 -73.376000 -5.348130 -0.000001 -0.000004 -65.028800 41.540000 -16.480100 -24.328900 0.000322 -0.000009 1.970930 6.725650 -16.383000 -22.291500 -0.000108 -0.000004 8.085800 5.429670 -3.927720 -2.192480 -6.469440 -0.000000 -175.637000 -6.331990 -3.042330 39.081100 -0.000007 -0.000012 -0.097999 0.232475 22.857600 40.985400 -0.000006 -0.000013 -0.217978 3.129170 -66.281800 11.754300 -0.000000 0.000003 -0.000025 -0.000311 -16.589700 -2.192510 6.469440 -0.000001 179.985000 13.254500 179.929000 -39.081100 -0.002282 -0.040193 -0.019478 0.065398 19.221400 -40.985400 0.000008 0.000006 4.033930 7.142840 -66.016100 -11.754300 -0.000006 -0.000006 -0.006003 -0.070858 -19.456900
0.000000 0.000000 0.000000 0.000000 0.000000 -0.000000 -0.818514 92.332400 -1.590200 88.032700 -1.558330 3.716960 15.735700 0.000005 -0.000001 86.208700 85.150900 -85.422500 8.984550 -0.406207 -0.000000 1.916170 -0.680989 1.582400 16.377300 -0.000001 -0.000001 2.252220 -2.573810 -0.112968 6.456720 -0.000001 -0.000000 4.392880 -3.131160 -1.408450 12.994200 -0.242716 4.980390 -90.644300 2.125320 -73.130100 5.348090 -0.000007 -0.000001 -60.162500 35.612400 -19.819200 24.328600 0.000019 0.000005 2.846500 5.060940 -29.408500 22.291600 -0.000001 0.000005 2.843470 5.532830 -7.919950 12.994500 -0.242716 -4.980390 88.285300 5.783070 -73.453700 -5.348130 -0.000001 -0.000004 -65.510400 41.233300 -16.156100 -24.328900 0.000322 -0.000009 1.958570 6.645760 -16.470100 -22.291500 -0.000108 -0.000004 8.020840 5.429560 -3.923980 -2.192480 -6.469440 -0.000000 -175.607000 -6.271110 -3.114050 39.081100 -0.000007 -0.000012 -0.098305 0.233343 22.845400 40.985400 -0.000006 -0.000013 -0.220635 3.220670 -66.199000 11.754300 -0.000000 0.000003 -0.000030 -0.000357 -16.591500 -2.192510 6.469440 -0.000001 -179.974000 13.424500 179.921000 -39.081100 -0.002282 -0.040193 -0.017301 0.059338 19.165900 -40.985400 0.000008 0.000006 4.053240 7.133840 -65.951500 -11.754300 -0.000006 -0.000006 -0.006033 -0.071135 -19.468200
0.000000 0.000000 0.000000 0.000000 0.000000 -0.000000 -0.870609 92.332500 -1.678160 88.074900 -1.257520 3.733330 15.735700 0.000005 -0.000001 87.716600 85.162300 -86.894700 8.984550 -0.406207 -0.000000 1.905260 -0.427268 1.649480 16.377300 -0.000001 -0.000001 2.358520 -2.639430 -0.224967 6.456720 -0.000001 -0.000000 4.360720 -3.543490 -1.464050 12.994200 -0.242716 4.980390 -90.706400 2.310490 -72.994000 5.348090 -0.000007 -0.000001 -57.392400 29.668200 -22.443300 24.328600 0.000019 0.000005 2.592230 3.801210 -34.344600 22.291600 -0.000001 0.000005 4.595700 5.544820 -8.452260 12.994500 -0.242716 -4.980390 88.351900 5.615080 -73.613100 -5.348130 -0.000001 -0.000004 -65.769400 41.258300 -15.794800 -24.328900 0.000322 -0.000009 1.923410 6.532430 -16.454600 -22.291500 -0.000108 -0.000004 8.038650 5.432490 -4.024700 -2.192480 -6.469440 -0.000000 -175.613000 -6.153200 -3.212190 39.081100 -0.000007 -0.000012 -0.096804 0.229530 22.867500 40.985400 -0.000006 -0.000013 -0.215591 3.420160 -66.123700 11.754300 -0.000000 0.000003 -0.000025 -0.000305 -16.589500 -2.192510 6.469440 -0.000001 179.983000 13.684100 179.876000 -39.081100 -0.002282 -0.040193 -0.024566 0.080074 19.202400 -40.985400 0.000008 0.000006 3.875930 7.143250 -65.902500 -11.754300 -0.000006 -0.000006 -0.005935 -0.070245 -19.431900
0.000000 0.000000 0.000000 0.000000 0.000000 -0.000000 -0.959071 92.354000 -1.784520 88.121600 -0.782634 3.754470 15.735700 0.000005 -0.000001 88.755000 85.174200 -87.874300 8.984550 -0.406207 -0.000000 1.885820 -0.254749 1.763850 16.377300 -0.000001 -0.000001 2.414800 -2.610480 -0.334477 6.456720 -0.000001 -0.000000 4.507000 -3.936170 -1.603620 12.994200 -0.242716 4.980390 -90.641000 2.095220 -72.986300 5.348090 -0.000007 -0.000001 -55.349100 22.288300 -25.515100 24.328600 0.000019 0.000005 1.622870 1.911480 -40.378900 22.291600 -0.000001 0.000005 6.703970 5.562750 -9.315710 12.994500 -0.242716 -4.980390 88.377500 5.587350 -73.778900 -5.348130 -0.000001 -0.000004 -65.530500 41.614200 -15.723100 -24.328900 0.000322 -0.000009 1.978680 6.779270 -16.321400 -22.291500 -0.000108 -0.000004 7.924720 5.432140 -4.012620 -2.192480 -6.469440 -0.000000 -175.623000 -5.849140 -3.287830 39.081100 -0.000007 -0.000012 -0.096005 0.228903 22.753900 40.985400 -0.000006 -0.000013 -0.245222 3.571830 -65.941000 11.754300 -0.000000 0.000003 -0.000022 -0.000278 -16.588400 -2.192510 6.469440 -0.000001 -179.988000 13.974400 179.899000 -39.081100 -0.002282 -0.040193 -0.021640 0.072038 19.112600 -40.985400 0.000008 0.000006 3.967850 6.944870 -65.836000 -11.754300 -0.000006 -0.000006 -0.006176 -0.072422 -19.520700
0.000000 0.000000 0.000000 0.000000 0.000000 -0.000000 -1.057700 92.359100 -1.892130 88.203200 -0.188464 3.774800 15.735700 0.000005 -0.000001 88.902100 85.178200 -87.950300 8.984550 -0.406207 -0.000000 1.878440 -0.233550 1.905620 16.377300 -0.000001 -0.000001 2.483260 -2.621200 -0.454604 6.456720 -0.000001 -0.000000 4.594460 -4.061280 -1.677260 12.994200 -0.242716 4.980390 -90.504800 1.653950 -73.024100 5.348090 -0.000007 -0.000001 -53.812300 14.263500 -29.141800 24.328600 0.000019 0.000005 0.689117 0.633828 -47.475500 22.291600 -0.000001 0.000005 8.648000 5.575660 -9.971160 12.994500 -0.242716 -4.980390 88.356500 5.681330 -73.836700 -5.348130 -0.000001 -0.000004 -64.948200 41.960500 -16.072800 -24.328900 0.000322 -0.000009 1.954790 6.898250 -15.871700 -22.291500 -0.000108 -0.000004 7.880610 5.432710 -4.032580 -2.192480 -6.469440 -0.000000 -175.652000 -5.458860 -3.415350 39.081100 -0.000007 -0.000012 -0.097293 0.232335 22.722100 40.985400 -0.000006 -0.000013 -0.270143 3.811360 -65.797400 11.754300 -0.000000 0.000003 -0.000021 -0.000265 -16.587900 -2.192510 6.469440 -0.000001 179.983000 14.351100 179.870000 -39.081100 -0.002282 -0.040193 -0.025171 0.082095 19.141300 -40.985400 0.000008 0.000006 3.866170 6.715440 -65.804800 -11.754300 -0.000006 -0.000006 -0.006082 -0.071574 -19.486100
